<svg width="545" height="32" viewBox="0 0 545 32" fill="none" xmlns="http://www.w3.org/2000/svg">
<g clip-path="url(#clip0_0_120)">
<path d="M5.25924 0C5.49739 0.0405025 5.73454 0.0874778 5.96995 0.141593C5.96995 0.421947 5.96995 0.702301 5.96995 0.99115C6.10481 1.00867 6.23967 1.02619 6.37861 1.04425C6.82281 1.13274 6.82281 1.13274 7.10709 1.41593C7.11405 1.528 7.12102 1.64007 7.12819 1.75553C7.17041 2.30811 7.25637 2.62755 7.53352 3.11504C8.3027 3.74204 9.20711 4.19018 10.0899 4.63693C10.3764 4.81416 10.3764 4.81416 10.6607 5.23894C10.6133 6.08438 10.3972 6.83105 10.1265 7.62942C10.0485 7.86706 9.97063 8.1047 9.89275 8.34237C9.77021 8.71233 9.64708 9.08207 9.52303 9.45153C9.40272 9.8112 9.28476 10.1716 9.16705 10.5321C9.12945 10.6418 9.09185 10.7516 9.05311 10.8647C8.76096 11.7662 8.85013 12.3947 9.19759 13.2765C9.24558 13.4013 9.29358 13.5261 9.34303 13.6547C9.41918 13.8519 9.41918 13.8519 9.49686 14.0531C10.4053 16.4766 11.3759 19.5218 10.5007 22.0885C10.1664 22.6214 9.83335 22.7882 9.23923 22.9381C8.64837 22.9873 8.06369 22.9782 7.47133 22.9646C6.92897 22.9558 6.38661 22.9471 5.82781 22.9381C5.82781 25.0407 5.82781 27.1434 5.82781 29.3097C6.67214 29.3097 7.51646 29.3097 8.38637 29.3097C9.72128 29.9746 9.72128 29.9746 10.0921 30.8673C10.1365 31.3451 10.1365 31.3451 10.0921 31.7168C9.94994 31.8584 9.94994 31.8584 9.5857 31.8673C9.47137 31.8643 9.35703 31.8614 9.23923 31.8584C9.198 31.7407 9.198 31.7407 9.15594 31.6206C9.11893 31.518 9.08192 31.4154 9.04378 31.3097C9.0075 31.2079 8.97122 31.106 8.93385 31.0011C8.8215 30.6999 8.8215 30.6999 8.52852 30.4425C7.99412 30.2511 7.42047 30.2535 6.85834 30.2212C6.70965 30.2121 6.70965 30.2121 6.55795 30.2027C6.3146 30.1878 6.07121 30.1735 5.82781 30.1593C5.82781 30.72 5.82781 31.2807 5.82781 31.8584C5.59327 31.8584 5.35874 31.8584 5.1171 31.8584C4.97495 31.7168 4.97495 31.7168 4.96107 31.3623C4.96272 31.2194 4.96437 31.0764 4.96607 30.9292C4.96735 30.7859 4.96863 30.6426 4.96996 30.495C4.9716 30.3842 4.97325 30.2734 4.97495 30.1593C4.6817 30.1755 4.38855 30.1936 4.09545 30.2124C3.85056 30.2272 3.85056 30.2272 3.60072 30.2423C3.01694 30.3145 2.58163 30.4136 2.16764 30.8407C1.97196 31.1818 1.90182 31.4711 1.84782 31.8584C1.61099 31.8645 1.37394 31.8642 1.1371 31.8584C0.994961 31.7168 0.994961 31.7168 0.950541 31.3451C1.01567 30.6444 1.25454 30.1523 1.77452 29.6875C2.79404 29.0516 3.7159 29.3097 4.97495 29.3097C4.97495 27.2071 4.97495 25.1044 4.97495 22.9381C3.93742 22.9492 3.93742 22.9492 2.89994 22.9636C2.06485 22.9681 1.32054 22.971 0.604069 22.4867C0.0652427 21.7084 0.102026 20.7732 0.115453 19.8673C0.115545 19.7482 0.115637 19.6291 0.115731 19.5064C0.119562 18.9717 0.137443 18.4995 0.284248 17.9823C0.550765 17.8938 0.550765 17.8938 0.852818 17.8407C1.1371 18.1239 1.1371 18.1239 1.16487 18.3873C1.16157 18.4922 1.15827 18.5971 1.15487 18.7052C1.15157 18.8792 1.15157 18.8792 1.14821 19.0567C1.14089 19.2993 1.13349 19.5419 1.126 19.7846C1.1227 19.9599 1.1227 19.9599 1.11934 20.1388C1.11439 20.2974 1.11439 20.2974 1.10934 20.4592C1.13413 20.9284 1.13413 20.9284 1.42139 21.8053C4.04818 21.8053 6.67498 21.8053 9.38137 21.8053C10.4522 19.1387 9.07219 15.8204 8.10209 13.3097C8.04529 13.1895 7.98849 13.0692 7.92996 12.9452C7.61537 11.9818 7.88802 11.0932 8.19593 10.1704C8.23412 10.0507 8.27232 9.93111 8.31168 9.80786C8.43275 9.42891 8.5559 9.05069 8.67954 8.67257C8.84281 8.17235 9.00408 7.67155 9.16427 7.17035C9.22134 6.99888 9.22134 6.99888 9.27956 6.82395C9.3308 6.66366 9.3308 6.66366 9.38307 6.50014C9.429 6.36 9.429 6.36 9.47585 6.21703C9.533 5.89313 9.49405 5.68811 9.38137 5.38053C9.13556 5.19183 9.13556 5.19183 8.8228 5.05531C8.70974 4.99836 8.59669 4.94142 8.48021 4.88274C8.24174 4.76708 8.00262 4.65275 7.76284 4.53982C7.16473 4.23567 6.78137 4.02455 6.53463 3.38274C6.40201 2.92311 6.3138 2.45694 6.25424 1.9823C5.78517 2.02903 5.31609 2.07575 4.83281 2.12389C4.82145 2.23012 4.81009 2.33635 4.79839 2.4458C4.66682 3.08813 4.52742 3.61268 3.99536 4.03789C3.26616 4.50315 2.48911 4.87429 1.70567 5.23894C1.51587 5.33278 1.32626 5.42701 1.1371 5.52212C1.36649 6.43661 1.64172 7.32924 1.9522 8.21903C1.98685 8.319 2.0215 8.41897 2.0572 8.52197C2.2013 8.93731 2.34564 9.35253 2.49322 9.76666C2.60211 10.0731 2.70822 10.3805 2.81394 10.6881C2.86434 10.8264 2.86434 10.8264 2.91575 10.9675C3.20909 11.8341 3.09129 12.5517 2.76341 13.3877C2.72026 13.4982 2.67711 13.6088 2.63265 13.7226C2.58767 13.8346 2.54269 13.9466 2.49634 14.0619C2.45191 14.1767 2.40747 14.2914 2.36169 14.4096C2.02763 15.2545 2.02763 15.2545 1.70567 15.5752C1.40362 15.5221 1.40362 15.5221 1.1371 15.4336C1.18569 14.4657 1.42062 13.7658 1.85337 12.8977C2.14693 11.9574 1.77154 11.0031 1.46081 10.1056C1.38352 9.8751 1.30625 9.64455 1.229 9.41399C1.10749 9.05562 0.985496 8.69742 0.863055 8.33936C0.744183 7.99048 0.627135 7.64102 0.510232 7.29148C0.473368 7.18556 0.436503 7.07963 0.398522 6.97049C0.185057 6.32957 0.0791934 5.78158 0.142105 5.09734C0.660863 4.53212 1.41056 4.20968 2.08768 3.85841C2.19735 3.80018 2.30701 3.74196 2.42 3.68197C3.23211 3.25664 3.23211 3.25664 3.55353 3.25664C3.56819 3.11354 3.58284 2.97044 3.59795 2.82301C3.70284 2.22458 3.84638 1.81307 4.1221 1.27434C4.54852 0.99115 4.54852 0.99115 5.1171 0.99115C5.11416 0.853894 5.11123 0.716637 5.10821 0.575221C5.1171 0.141593 5.1171 0.141593 5.25924 0Z" fill="white"/>
<path d="M85.4382 7.48686C85.5929 7.48762 85.5929 7.48762 85.7508 7.4884C85.859 7.48838 85.9671 7.48836 86.0786 7.48834C86.4377 7.48844 86.7969 7.48954 87.1561 7.49065C87.4045 7.49091 87.6528 7.49111 87.9012 7.49126C88.5562 7.4918 89.2112 7.49319 89.8662 7.49475C90.5341 7.4962 91.202 7.49685 91.8698 7.49756C93.1812 7.49908 94.4926 7.5015 95.804 7.50448C95.8429 7.6502 95.8818 7.79592 95.9218 7.94606C95.9734 8.1392 96.025 8.33235 96.0766 8.52549C96.1022 8.62131 96.1278 8.71712 96.1541 8.81584C96.2594 9.20969 96.3653 9.60311 96.4783 9.99487C96.6298 10.5352 96.6846 10.9277 96.5147 11.4691C96.1932 11.5139 96.1932 11.5139 95.804 11.4691C95.5258 11.1632 95.5258 11.1632 95.2621 10.7523C94.5716 9.75087 93.9602 8.96717 92.7285 8.69132C92.0753 8.58612 91.4184 8.56952 90.758 8.54872C90.2654 8.5312 89.7729 8.51368 89.2655 8.49563C89.3124 10.5048 89.3593 12.514 89.4076 14.5841C91.413 14.6541 91.413 14.6541 92.2505 13.8762C92.4509 13.5493 92.4509 13.5493 92.5792 13.2036C92.6255 13.0904 92.6719 12.9773 92.7196 12.8607C92.7524 12.7753 92.7852 12.6898 92.819 12.6018C93.0536 12.6018 93.2881 12.6018 93.5297 12.6018C93.5606 13.262 93.5885 13.9222 93.6139 14.5826C93.6229 14.8073 93.6327 15.032 93.6433 15.2567C93.6584 15.5793 93.6707 15.9019 93.6824 16.2246C93.6877 16.3254 93.6931 16.4261 93.6985 16.5299C93.7072 16.8133 93.7072 16.8133 93.6719 17.2744C93.2455 17.5576 93.2455 17.5576 92.819 17.5576C92.7829 17.4705 92.7468 17.3834 92.7096 17.2937C92.6607 17.1793 92.6118 17.0649 92.5614 16.947C92.5136 16.8336 92.4657 16.7203 92.4165 16.6035C92.1951 16.1765 91.9706 15.9315 91.5397 15.7169C91.1547 15.6613 90.7711 15.6113 90.3848 15.5664C90.2776 15.5536 90.1705 15.5407 90.06 15.5274C89.7952 15.4957 89.5303 15.4646 89.2655 15.4337C89.2822 16.1772 89.2999 16.9207 89.3184 17.6642C89.3246 17.9173 89.3305 18.1705 89.3362 18.4236C89.3443 18.7867 89.3534 19.1497 89.3626 19.5128C89.365 19.6266 89.3674 19.7405 89.3698 19.8578C89.3354 20.3791 89.3354 20.3791 89.5497 20.8142C89.8126 20.8473 90.0764 20.8727 90.3404 20.8939C90.5562 20.9117 90.5562 20.9117 90.7763 20.9298C90.8875 20.9384 90.9987 20.947 91.1133 20.9558C91.1133 21.2362 91.1133 21.5165 91.1133 21.8054C89.0963 21.8054 87.0793 21.8054 85.0012 21.8054C85.0012 21.525 85.0012 21.2447 85.0012 20.9558C85.0919 20.9472 85.1826 20.9386 85.276 20.9298C85.3935 20.9179 85.5109 20.9061 85.6319 20.8939C85.749 20.8824 85.8661 20.8709 85.9867 20.859C86.2786 20.844 86.2786 20.844 86.4226 20.6726C86.4369 20.3028 86.442 19.9368 86.441 19.567C86.4413 19.4512 86.4415 19.3354 86.4418 19.2161C86.4424 18.8314 86.442 18.4467 86.4415 18.062C86.4416 17.7959 86.4417 17.5298 86.4419 17.2636C86.4421 16.7051 86.4418 16.1466 86.4411 15.5881C86.4403 14.8705 86.4408 14.153 86.4416 13.4354C86.4422 12.8856 86.442 12.3359 86.4416 11.7861C86.4415 11.5215 86.4417 11.2568 86.442 10.9921C86.4423 10.6229 86.4418 10.2537 86.441 9.88445C86.4413 9.77397 86.4416 9.66349 86.4419 9.54965C86.4858 9.05198 86.4858 9.05198 86.2805 8.63722C85.9939 8.60405 85.7064 8.57869 85.4187 8.55757C85.2617 8.54571 85.1047 8.53385 84.9429 8.52162C84.8214 8.51304 84.6999 8.50446 84.5748 8.49563C84.5687 8.2125 84.569 7.9292 84.5748 7.64607C84.8159 7.40583 85.1165 7.48753 85.4382 7.48686Z" fill="white"/>
<path d="M19.2 7.48686C19.3547 7.48762 19.3547 7.48762 19.5126 7.4884C19.6208 7.48838 19.7289 7.48836 19.8404 7.48834C20.1995 7.48844 20.5587 7.48954 20.9179 7.49065C21.1663 7.49091 21.4146 7.49111 21.663 7.49126C22.318 7.4918 22.973 7.49319 23.628 7.49475C24.2959 7.4962 24.9638 7.49685 25.6316 7.49756C26.943 7.49908 28.2544 7.5015 29.5658 7.50448C29.8233 8.13619 29.9971 8.75328 30.1522 9.41598C30.178 9.52166 30.2038 9.62734 30.2305 9.73622C30.3583 10.2771 30.4522 10.7675 30.4187 11.3275C30.1842 11.3742 29.9496 11.4209 29.708 11.4691C29.5066 11.2243 29.3052 10.9794 29.1039 10.7346C28.9357 10.53 28.9357 10.53 28.7641 10.3214C28.5483 10.0577 28.3359 9.7913 28.1277 9.52162C27.5964 8.89021 26.9448 8.73957 26.1544 8.63722C25.6158 8.60109 25.0769 8.57874 24.5375 8.55757C24.0392 8.53713 23.5408 8.51669 23.0273 8.49563C23.0273 10.5516 23.0273 12.6075 23.0273 14.7257C23.1211 14.679 23.2149 14.6323 23.3116 14.5841C23.8099 14.5558 24.3079 14.539 24.8068 14.5238C25.3807 14.4295 25.6095 14.2881 26.0123 13.8762C26.2127 13.5493 26.2127 13.5493 26.341 13.2036C26.3873 13.0904 26.4337 12.9773 26.4814 12.8607C26.5142 12.7753 26.547 12.6898 26.5808 12.6018C26.8154 12.6018 27.0499 12.6018 27.2916 12.6018C27.3385 14.1905 27.3854 15.7792 27.4337 17.416C27.0115 17.4861 27.0115 17.4861 26.5808 17.5576C26.5316 17.4116 26.5316 17.4116 26.4814 17.2628C26.4351 17.1352 26.3887 17.0076 26.341 16.8762C26.2964 16.7497 26.2519 16.6232 26.206 16.4929C25.9583 16.0439 25.7647 15.94 25.3016 15.7169C24.9103 15.6299 24.5187 15.5874 24.12 15.5487C23.9621 15.5313 23.9621 15.5313 23.801 15.5136C23.5433 15.4854 23.2853 15.4594 23.0273 15.4337C23.0441 16.1545 23.0617 16.8752 23.0802 17.5959C23.0864 17.8412 23.0923 18.0865 23.098 18.3318C23.1062 18.684 23.1152 19.0362 23.1244 19.3883C23.1268 19.4984 23.1292 19.6084 23.1316 19.7218C23.136 20.2865 23.136 20.2865 23.3116 20.8142C23.6745 20.8752 23.6745 20.8752 24.0933 20.8939C24.8614 20.9422 24.8614 20.9422 25.0173 21.0974C25.0173 21.331 25.0173 21.5647 25.0173 21.8054C22.9534 21.8054 20.8894 21.8054 18.763 21.8054C18.763 21.525 18.763 21.2447 18.763 20.9558C19.537 20.8857 19.537 20.8857 20.3266 20.8142C20.3113 19.2474 20.2953 17.6807 20.2783 16.1139C20.2705 15.3864 20.2629 14.659 20.2559 13.9316C20.2491 13.2302 20.2417 12.5288 20.2338 11.8274C20.2308 11.5591 20.2282 11.2909 20.2258 11.0227C20.2224 10.6483 20.2181 10.274 20.2136 9.8997C20.2128 9.78767 20.212 9.67564 20.2111 9.56021C20.2505 9.0568 20.2505 9.0568 20.0423 8.63722C19.7823 8.60772 19.5215 8.58518 19.2605 8.56642C18.4945 8.51136 18.4945 8.51136 18.3366 8.35403C18.3188 8.00005 18.3188 8.00005 18.3366 7.64607C18.5777 7.40583 18.8783 7.48753 19.2 7.48686Z" fill="white"/>
<path d="M50.1762 7.36279C50.2231 9.60562 50.27 11.8485 50.3183 14.1593C50.8812 13.8088 50.8812 13.8088 51.4555 13.4513C52.2523 13.1867 53.2332 13.1639 54.0423 13.4015C54.7929 13.7946 55.4518 14.4914 55.7197 15.292C55.7417 15.7093 55.7563 16.1239 55.7647 16.5414C55.7677 16.6634 55.7706 16.7854 55.7737 16.911C55.783 17.3006 55.7913 17.6901 55.7997 18.0796C55.8058 18.3437 55.812 18.6078 55.8183 18.8719C55.8335 19.5193 55.8479 20.1667 55.8619 20.8141C56.2371 20.8608 56.6124 20.9076 56.999 20.9557C56.999 21.2361 56.999 21.5164 56.999 21.8053C55.498 21.8053 53.997 21.8053 52.4505 21.8053C52.4505 21.5249 52.4505 21.2446 52.4505 20.9557C52.8726 20.8856 52.8726 20.8856 53.3033 20.8141C53.3139 20.1037 53.3216 19.3934 53.3267 18.683C53.3289 18.4415 53.3318 18.2001 53.3355 17.9587C53.3407 17.6107 53.3431 17.2628 53.345 16.9148C53.3483 16.7541 53.3483 16.7541 53.3516 16.5902C53.3518 15.9134 53.2546 15.4524 52.8769 14.8672C52.3432 14.5128 52.0884 14.5199 51.4555 14.584C50.929 14.871 50.6518 15.0768 50.3183 15.5752C50.2939 15.9759 50.2853 16.3623 50.2906 16.7627C50.2912 16.9362 50.2912 16.9362 50.2918 17.1132C50.2934 17.4826 50.2969 17.8519 50.3006 18.2212C50.302 18.4717 50.3033 18.7221 50.3044 18.9726C50.3076 19.5864 50.3125 20.2003 50.3183 20.8141C50.5998 20.9076 50.8812 21.001 51.1712 21.0973C51.1712 21.3309 51.1712 21.5646 51.1712 21.8053C49.6232 21.8053 48.0753 21.8053 46.4805 21.8053C46.4805 21.0973 46.4805 21.0973 46.6226 20.9557C46.9543 20.9085 47.2859 20.8613 47.6176 20.8141C47.8854 20.5474 47.7807 20.0868 47.7827 19.7318C47.7834 19.6335 47.7841 19.5352 47.7848 19.4339C47.7869 19.1071 47.7878 18.7803 47.7886 18.4535C47.7894 18.2268 47.7903 18.0002 47.7911 17.7735C47.7926 17.2974 47.7934 16.8212 47.7939 16.3451C47.7947 15.7355 47.7981 15.1259 47.8021 14.5163C47.8048 14.0477 47.8055 13.5791 47.8057 13.1104C47.8062 12.8857 47.8073 12.6611 47.8092 12.4364C47.8116 12.1215 47.8113 11.8067 47.8104 11.4918C47.8112 11.2231 47.8112 11.2231 47.812 10.9491C47.7552 10.4368 47.6482 10.1749 47.3333 9.76987C46.8974 9.51128 46.8974 9.51128 46.4805 9.34509C46.5134 9.01286 46.5134 9.01286 46.6226 8.63713C46.8884 8.43978 46.8884 8.43978 47.2334 8.28923C47.358 8.23402 47.4826 8.17881 47.6109 8.12192C47.7421 8.06707 47.8733 8.01222 48.0085 7.95571C48.202 7.86933 48.202 7.86933 48.3994 7.78121C49.0599 7.49503 49.4345 7.36279 50.1762 7.36279Z" fill="white"/>
<path d="M112.435 13.4514C113.842 13.4514 115.249 13.4514 116.699 13.4514C116.699 13.685 116.699 13.9186 116.699 14.1593C116.511 14.2061 116.324 14.2528 116.13 14.3009C116.26 14.7613 116.39 15.2214 116.521 15.6815C116.557 15.809 116.593 15.9366 116.63 16.0681C116.909 17.0466 117.222 18.0109 117.552 18.9735C117.795 18.4026 118.034 17.8299 118.271 17.2567C118.34 17.095 118.409 16.9333 118.48 16.7666C118.545 16.6097 118.61 16.4527 118.676 16.291C118.736 16.1471 118.797 16.0033 118.859 15.8551C118.989 15.3762 118.946 15.0622 118.831 14.5841C118.55 14.4907 118.268 14.3972 117.978 14.3009C117.972 14.065 117.972 13.8289 117.978 13.593C118.12 13.4514 118.12 13.4514 118.502 13.4353C118.668 13.436 118.834 13.4368 119.005 13.4375C119.184 13.438 119.363 13.4385 119.548 13.4389C119.738 13.4401 119.929 13.4413 120.119 13.4425C120.31 13.4432 120.501 13.4439 120.692 13.4445C121.162 13.4461 121.631 13.4485 122.1 13.4514C122.1 13.7317 122.1 14.0121 122.1 14.3009C121.866 14.3477 121.631 14.3944 121.39 14.4425C122.093 16.5452 122.093 16.5452 122.811 18.6903C123.022 18.1471 123.233 17.6039 123.451 17.0443C123.517 16.8746 123.584 16.7049 123.653 16.5301C123.731 16.3263 123.731 16.3263 123.81 16.1184C123.864 15.9805 123.918 15.8426 123.973 15.7005C124.099 15.2627 124.111 14.8956 124.09 14.4425C123.856 14.3958 123.621 14.3491 123.38 14.3009C123.38 14.0206 123.38 13.7402 123.38 13.4514C124.552 13.4514 125.725 13.4514 126.933 13.4514C126.933 13.685 126.933 13.9186 126.933 14.1593C126.763 14.1924 126.592 14.2254 126.417 14.2595C125.808 14.4894 125.631 14.7938 125.362 15.3734C125.224 15.7075 125.091 16.0433 124.961 16.3806C124.889 16.5582 124.817 16.7356 124.744 16.9128C124.596 17.2765 124.45 17.6409 124.306 18.0061C124.037 18.6862 123.754 19.3606 123.471 20.0351C123.347 20.3321 123.223 20.6294 123.1 20.9271C123.045 21.0598 122.99 21.1925 122.934 21.3291C122.886 21.4455 122.838 21.5619 122.788 21.6818C122.669 21.947 122.669 21.947 122.527 22.0885C122.29 22.0943 122.053 22.0946 121.816 22.0885C121.314 20.9434 120.865 19.779 120.421 18.6107C120.363 18.459 120.305 18.3073 120.245 18.151C120.191 18.0076 120.137 17.8641 120.081 17.7163C120.032 17.587 119.983 17.4577 119.932 17.3244C119.826 16.9912 119.826 16.9912 119.826 16.5664C119.732 16.5664 119.638 16.5664 119.542 16.5664C119.489 16.7345 119.437 16.9026 119.383 17.0758C119.062 18.0356 118.648 18.9577 118.245 19.885C118.166 20.0678 118.087 20.2506 118.008 20.4334C117.44 21.7442 117.44 21.7442 117.267 22.0885C117.033 22.0885 116.798 22.0885 116.557 22.0885C116.121 21.2521 115.756 20.4064 115.414 19.5283C115.362 19.3957 115.31 19.2632 115.256 19.1267C115.091 18.7071 114.926 18.2872 114.762 17.8673C114.545 17.3116 114.327 16.7561 114.108 16.2008C114.058 16.0734 114.009 15.946 113.958 15.8147C113.888 15.6374 113.888 15.6374 113.817 15.4565C113.776 15.3527 113.736 15.2489 113.694 15.1419C113.565 14.8312 113.565 14.8312 113.287 14.4425C112.852 14.3387 112.852 14.3387 112.435 14.3009C112.435 14.0206 112.435 13.7402 112.435 13.4514Z" fill="white"/>
<path d="M76.757 13.3098C76.8508 13.6369 76.9446 13.9639 77.0413 14.3009C77.1304 14.2412 77.2194 14.1816 77.3112 14.1201C77.4273 14.0425 77.5435 13.9649 77.6632 13.885C77.7786 13.8078 77.8941 13.7306 78.013 13.651C78.8334 13.1185 79.7926 13.2087 80.737 13.3098C81.4058 13.5784 81.8534 13.9565 82.3006 14.5133C82.6176 15.3028 82.6043 16.1095 82.5987 16.9458C82.5985 17.0609 82.5983 17.176 82.5981 17.2946C82.5973 17.6595 82.5956 18.0245 82.5938 18.3894C82.593 18.6379 82.5924 18.8865 82.5918 19.135C82.5902 19.7419 82.5878 20.3489 82.5849 20.9558C82.9601 20.9558 83.3354 20.9558 83.722 20.9558C83.722 21.2361 83.722 21.5165 83.722 21.8054C82.221 21.8054 80.72 21.8054 79.1734 21.8054C79.1734 21.5717 79.1734 21.3381 79.1734 21.0974C79.4549 21.0039 79.7363 20.9105 80.0263 20.8142C80.21 19.849 80.1946 18.8998 80.1951 17.9204C80.1977 17.6448 80.1977 17.6448 80.2004 17.3637C80.2006 17.1855 80.2009 17.0072 80.2012 16.8236C80.2018 16.6622 80.2024 16.5007 80.203 16.3344C80.1644 15.8032 80.0469 15.373 79.8842 14.8673C79.1278 14.6537 78.3724 14.642 77.6099 14.8319C77.3045 14.9804 77.3045 14.9804 77.2378 15.2691C77.1491 15.7687 77.1662 16.2709 77.1696 16.7766C77.1699 16.9498 77.1699 16.9498 77.1702 17.1265C77.171 17.4944 77.1728 17.8623 77.1746 18.2301C77.1753 18.4799 77.1759 18.7298 77.1765 18.9796C77.1781 19.5911 77.1805 20.2027 77.1834 20.8142C77.418 20.8609 77.6525 20.9077 77.8942 20.9558C77.8942 21.2361 77.8942 21.5165 77.8942 21.8054C76.4869 21.8054 75.0797 21.8054 73.6299 21.8054C73.6299 21.525 73.6299 21.2446 73.6299 20.9558C74.1224 20.8857 74.1224 20.8857 74.6249 20.8142C74.6425 20.1416 74.6554 19.4691 74.6639 18.7963C74.6675 18.5676 74.6723 18.3389 74.6785 18.1103C74.6872 17.7809 74.6912 17.4517 74.6943 17.1223C74.6998 16.9698 74.6998 16.9698 74.7054 16.8142C74.7057 16.2528 74.6453 16.0248 74.283 15.5848C73.943 15.2942 73.943 15.2942 73.6299 15.1505C73.6299 14.9169 73.6299 14.6832 73.6299 14.4425C74.0171 14.252 74.405 14.0636 74.7937 13.8761C74.903 13.8221 75.0123 13.7681 75.1249 13.7124C76.1324 13.23 76.1324 13.23 76.757 13.3098Z" fill="white"/>
<path d="M109.832 13.6195C110.04 13.7455 110.245 13.8778 110.445 14.0177C110.527 14.0721 110.61 14.1265 110.695 14.1825C111.525 14.7934 112.049 15.7015 112.253 16.6991C112.452 18.1566 112.11 19.321 111.259 20.5205C110.615 21.2894 109.738 21.9054 108.739 22.0885C107.144 22.2305 105.91 22.1828 104.615 21.1527C103.709 20.326 103.267 19.37 103.162 18.1576C103.128 16.8331 103.439 15.7297 104.255 14.6687C105.634 13.2496 108.019 12.7456 109.832 13.6195ZM106.607 14.5841C105.745 15.4431 105.585 16.4433 105.559 17.6195C105.584 18.7047 105.706 19.6985 106.349 20.6018C106.84 21.036 107.23 21.2171 107.886 21.2389C108.481 21.0763 108.783 20.8084 109.13 20.3186C109.834 19.0773 109.833 17.6579 109.592 16.2832C109.351 15.4765 109.002 14.8121 108.313 14.3009C107.588 14.0946 107.196 14.1083 106.607 14.5841Z" fill="white"/>
<path d="M69.8894 13.6195C70.098 13.7455 70.3029 13.8778 70.5024 14.0177C70.5848 14.0721 70.6673 14.1265 70.7523 14.1825C71.5824 14.7934 72.1068 15.7015 72.3103 16.6991C72.5098 18.1566 72.1681 19.321 71.3169 20.5205C70.673 21.2894 69.7955 21.9054 68.7967 22.0885C67.2017 22.2305 65.9675 22.1828 64.6723 21.1527C63.7664 20.326 63.3243 19.37 63.2193 18.1576C63.1855 16.8331 63.4967 15.7297 64.3125 14.6687C65.6918 13.2496 68.077 12.7456 69.8894 13.6195ZM66.6645 14.5841C65.8022 15.4431 65.6425 16.4433 65.6162 17.6195C65.6414 18.7047 65.7633 19.6985 66.4069 20.6018C66.8974 21.036 67.2873 21.2171 67.9438 21.2389C68.5385 21.0763 68.8405 20.8084 69.1876 20.3186C69.8912 19.0773 69.8906 17.6579 69.6495 16.2832C69.4083 15.4765 69.0599 14.8121 68.3703 14.3009C67.6455 14.0946 67.2536 14.1083 66.6645 14.5841Z" fill="white"/>
<path d="M34.7715 13.2478C34.8751 13.2446 34.9787 13.2414 35.0855 13.2382C35.8177 13.2413 36.2351 13.3966 36.8148 13.8761C37.3412 14.6626 37.2637 15.6939 37.2812 16.6183C37.2866 16.8392 37.292 17.0601 37.2973 17.281C37.305 17.6249 37.3124 17.9689 37.3197 18.3129C37.3271 18.6478 37.3352 18.9826 37.3434 19.3175C37.3453 19.4208 37.3473 19.5242 37.3493 19.6308C37.3543 20.1696 37.3543 20.1696 37.5255 20.6725C37.6311 20.6229 37.7366 20.5733 37.8453 20.5221C38.2542 20.3833 38.4167 20.3515 38.8048 20.531C38.8517 20.6711 38.8986 20.8113 38.947 20.9557C38.7843 21.2091 38.7843 21.2091 38.5472 21.469C38.4315 21.5988 38.4315 21.5988 38.3134 21.7312C37.8998 22.138 37.5483 22.1195 36.9836 22.1327C36.4135 22.1286 36.1601 22.1209 35.6599 21.8318C35.3934 21.5221 35.3934 21.5221 35.1091 21.0973C35.0094 21.182 34.9097 21.2667 34.8071 21.354C33.7718 22.1386 32.8324 22.2559 31.5555 22.0885C31.0521 21.8308 30.8806 21.4874 30.7027 20.9557C30.6226 20.1501 30.6561 19.5159 31.1291 18.8318C31.7906 18.1624 32.5119 17.7489 33.3679 17.3717C33.475 17.3227 33.5822 17.2736 33.6927 17.2232C34.1148 17.0316 34.5264 16.8542 34.967 16.7079C34.9507 16.4601 34.9325 16.2123 34.9137 15.9646C34.9038 15.8266 34.8939 15.6886 34.8837 15.5464C34.8264 15.1608 34.7498 14.911 34.5405 14.5841C34.1873 14.4081 34.0055 14.449 33.6166 14.4956C33.4473 14.5147 33.4473 14.5147 33.2746 14.5343C32.9697 14.5704 32.9697 14.5704 32.6927 14.7256C32.6418 15.0778 32.6296 15.4262 32.6133 15.7815C32.5396 16.2045 32.4237 16.4019 32.1241 16.7079C31.5731 16.8354 31.2421 16.8871 30.7027 16.7079C30.4817 16.2677 30.5198 15.9203 30.5605 15.4336C31.035 14.4267 31.9601 13.9737 32.9059 13.469C33.5128 13.2646 34.1366 13.26 34.7715 13.2478ZM34.1319 18.0177C34.0062 18.1031 33.8805 18.1885 33.751 18.2765C33.318 18.6155 33.0231 18.8798 32.9153 19.4292C32.9144 19.9732 32.9156 20.2943 33.2168 20.761C33.5314 20.9851 33.5314 20.9851 33.892 20.9557C34.3642 20.7722 34.6187 20.6223 34.967 20.2478C35.0557 19.7851 35.034 19.3361 35.0114 18.8672C35.0082 18.7415 35.005 18.6157 35.0017 18.4862C34.9933 18.1764 34.9816 17.8671 34.967 17.5575C34.666 17.5575 34.3665 17.8564 34.1319 18.0177Z" fill="white"/>
<path d="M101.348 7.36281C101.347 7.60619 101.347 7.60619 101.347 7.85449C101.344 9.38171 101.342 10.9089 101.34 12.4362C101.34 13.2214 101.339 14.0066 101.337 14.7918C101.336 15.5492 101.335 16.3066 101.334 17.064C101.334 17.3533 101.334 17.6427 101.333 17.932C101.332 18.3364 101.332 18.7409 101.332 19.1453C101.331 19.2656 101.331 19.3859 101.33 19.5098C101.331 19.9808 101.339 20.3641 101.49 20.8141C101.912 20.8609 102.334 20.9076 102.769 20.9557C102.769 21.2361 102.769 21.5164 102.769 21.8053C101.034 21.8053 99.2981 21.8053 97.51 21.8053C97.51 21.5249 97.51 21.2446 97.51 20.9557C98.1432 20.8856 98.1432 20.8856 98.7892 20.8141C98.7991 19.4602 98.8067 18.1063 98.8113 16.7524C98.8136 16.1237 98.8166 15.495 98.8214 14.8663C98.8261 14.2595 98.8286 13.6526 98.8297 13.0458C98.8305 12.8144 98.832 12.583 98.8343 12.3516C98.8374 12.0272 98.8379 11.7029 98.8377 11.3785C98.8386 11.1939 98.8396 11.0093 98.8405 10.8192C98.7858 10.3036 98.6737 10.0388 98.3628 9.6283C98.1118 9.45857 98.1118 9.45857 97.8387 9.37166C97.6833 9.31617 97.5279 9.26069 97.3678 9.20352C97.365 8.87775 97.365 8.87775 97.51 8.49556C97.881 8.27935 98.2813 8.16678 98.6915 8.04423C98.9102 7.97465 99.1288 7.90478 99.3473 7.8346C99.4446 7.805 99.542 7.7754 99.6423 7.7449C99.9314 7.65406 99.9314 7.65406 100.194 7.49262C100.588 7.32295 100.923 7.35435 101.348 7.36281Z" fill="white"/>
<path d="M42.7943 13.2477C42.9377 13.2456 42.9377 13.2456 43.084 13.2434C43.9005 13.2574 44.6121 13.4302 45.2018 14.0176C45.2968 14.412 45.2968 14.412 45.3706 14.876C45.3961 15.0295 45.4216 15.1831 45.4478 15.3412C45.4605 15.4651 45.4731 15.5891 45.4861 15.7168C45.344 15.8583 45.344 15.8583 45.0175 15.9109C44.6333 15.8583 44.6333 15.8583 44.329 15.5536C44.23 15.4235 44.1311 15.2933 44.0292 15.1592C43.4706 14.5052 43.4706 14.5052 42.6788 14.2389C42.1863 14.2389 42.0634 14.3083 41.6305 14.5929C41.3362 14.9889 41.3362 14.9889 41.3018 15.4424C41.5869 16.0227 41.9307 16.0876 42.5256 16.2942C42.7245 16.3588 42.7245 16.3588 42.9276 16.4247C43.9451 16.7786 44.9137 17.1561 45.5094 18.1039C45.7781 18.7893 45.7402 19.6011 45.5255 20.2981C45.1164 21.1776 44.5332 21.624 43.637 21.9979C42.6521 22.313 41.2043 22.2609 40.2357 21.9114C39.8729 21.6875 39.8065 21.5404 39.671 21.131C39.5453 20.4566 39.506 19.8 39.5161 19.115C39.8679 19.0449 39.8679 19.0449 40.2268 18.9734C40.3376 19.15 40.3376 19.15 40.4506 19.3301C40.5497 19.484 40.6489 19.6379 40.751 19.7964C40.8483 19.9492 40.9456 20.1019 41.0458 20.2593C41.3671 20.6766 41.6002 20.8772 42.0747 21.0973C42.6633 21.1706 42.9659 21.1545 43.4872 20.8672C43.8141 20.5495 43.8141 20.5495 43.8604 20.1061C43.7593 19.5694 43.6385 19.4555 43.2118 19.115C42.8036 18.9342 42.3821 18.7973 41.9592 18.6548C40.9776 18.2976 40.1467 17.9754 39.6583 16.9911C39.3462 16.1443 39.5756 15.3791 39.9426 14.584C40.6122 13.4722 41.5731 13.2596 42.7943 13.2477Z" fill="white"/>
<path d="M61.2631 13.3097C61.3335 17.0244 61.3335 17.0244 61.4052 20.8141C61.7805 20.8608 62.1557 20.9076 62.5424 20.9557C62.5424 21.2361 62.5424 21.5164 62.5424 21.8053C60.9006 21.8053 59.2589 21.8053 57.5674 21.8053C57.5674 21.5249 57.5674 21.2446 57.5674 20.9557C57.9895 20.9557 58.4117 20.9557 58.8467 20.9557C58.8607 20.22 58.871 19.4843 58.8779 18.7485C58.8808 18.4983 58.8846 18.248 58.8896 17.9978C58.8965 17.6379 58.8997 17.2781 58.9022 16.9181C58.9051 16.8064 58.9081 16.6948 58.9111 16.5797C58.9113 16.0697 58.8957 15.7803 58.5789 15.3696C58.2973 15.1644 58.0299 15.004 57.7095 14.8672C57.7095 14.6803 57.7095 14.4934 57.7095 14.3008C58.141 14.1333 58.5737 13.969 59.0066 13.8053C59.1282 13.758 59.2499 13.7107 59.3753 13.662C59.4944 13.6173 59.6135 13.5726 59.7362 13.5265C59.8992 13.4642 59.8992 13.4642 60.0655 13.4007C60.4102 13.3097 60.4102 13.3097 61.2631 13.3097Z" fill="white"/>
<path d="M60.5532 8.92035C61.0005 9.30879 61.1075 9.53981 61.2017 10.1239C61.1218 10.6195 61.1218 10.6195 60.8464 11.0354C60.2609 11.4282 59.8181 11.4573 59.1318 11.3274C58.6965 11.115 58.6965 11.115 58.4211 10.7611C58.3474 10.299 58.3111 10.0629 58.4211 9.62832C59.0564 8.82434 59.5627 8.67801 60.5532 8.92035Z" fill="white"/>
<path d="M2.27398 7.50439C2.50851 7.50439 2.74305 7.50439 2.98469 7.50439C3.30315 8.2671 3.60409 9.0358 3.88197 9.81413C3.93126 9.95084 3.98054 10.0875 4.03133 10.2284C4.12929 10.6516 4.09709 10.9132 3.97969 11.3274C3.65765 11.3385 3.65765 11.3385 3.26898 11.1858C3.02473 10.7737 2.88539 10.3294 2.73594 9.87608C2.69288 9.75433 2.64982 9.63259 2.60546 9.50716C2.40784 8.93934 2.22064 8.38389 2.13184 7.78758C2.17874 7.69413 2.22565 7.60068 2.27398 7.50439Z" fill="white"/>
<path d="M1.70562 5.8053C1.94016 5.8053 2.17469 5.8053 2.41633 5.8053C2.64427 6.30197 2.73194 6.67518 2.70062 7.22123C2.16758 7.38052 2.16758 7.38052 1.84776 7.22123C1.75282 6.96957 1.75282 6.96957 1.67897 6.6637C1.6535 6.56314 1.62803 6.46257 1.60179 6.35895C1.56348 6.08848 1.56348 6.08848 1.70562 5.8053Z" fill="white"/>
</g>
<defs>
<clipPath id="clip0_0_120">
<rect width="126.933" height="32" fill="white"/>
</clipPath>
</defs>
</svg>
