<svg width="16" height="16" viewBox="0 0 16 16" fill="none" xmlns="http://www.w3.org/2000/svg">
<g clip-path="url(#clip0_0_18)">
<path d="M15.5747 5.72266L10.6561 4.97133L8.45141 0.275329C8.28675 -0.0753376 7.71141 -0.0753376 7.54675 0.275329L5.34275 4.97133L0.424079 5.72266C0.333264 5.73661 0.248049 5.77532 0.17779 5.83453C0.107531 5.89374 0.0549464 5.97116 0.0258086 6.0583C-0.00332931 6.14544 -0.00789322 6.23892 0.0126179 6.32848C0.0331291 6.41805 0.0779221 6.50022 0.142079 6.566L3.71541 10.2287L2.87075 15.4067C2.85566 15.4993 2.86694 15.5942 2.90329 15.6807C2.93964 15.7672 2.99959 15.8418 3.07629 15.8958C3.153 15.9498 3.24336 15.9812 3.33704 15.9863C3.43073 15.9914 3.52396 15.97 3.60608 15.9247L7.99941 13.4967L12.3927 15.9253C12.4749 15.9707 12.5681 15.9921 12.6618 15.987C12.7555 15.9819 12.8458 15.9505 12.9225 15.8965C12.9992 15.8424 13.0592 15.7679 13.0955 15.6814C13.1319 15.5949 13.1432 15.4999 13.1281 15.4073L12.2834 10.2293L15.8567 6.56666C15.9211 6.50091 15.966 6.41868 15.9867 6.32902C16.0073 6.23937 16.0028 6.14576 15.9736 6.0585C15.9445 5.97124 15.8918 5.89372 15.8214 5.83447C15.7511 5.77522 15.6657 5.73653 15.5747 5.72266Z" fill="#FFC107"/>
</g>
<defs>
<clipPath id="clip0_0_18">
<rect width="16" height="16" fill="white"/>
</clipPath>
</defs>
</svg>
