<svg width="24" height="24" viewBox="0 0 24 24" fill="none" xmlns="http://www.w3.org/2000/svg">
<path fill-rule="evenodd" clip-rule="evenodd" d="M5.00009 17.586C4.81245 17.7736 4.70703 18.0281 4.70703 18.2935C4.70703 18.5589 4.81245 18.8133 5.00009 19.001C5.18773 19.1886 5.44222 19.294 5.70759 19.294C5.97295 19.294 6.22745 19.1886 6.41509 19.001L12.0001 13.414L17.5861 19C17.7747 19.1821 18.0273 19.2829 18.2895 19.2807C18.5517 19.2784 18.8025 19.1732 18.9879 18.9878C19.1733 18.8024 19.2785 18.5516 19.2808 18.2894C19.283 18.0272 19.1822 17.7746 19.0001 17.586L13.4141 12L19.0001 6.41399C19.1876 6.22635 19.2929 5.97191 19.2928 5.70664C19.2927 5.44137 19.1872 5.187 18.9996 4.99949C18.8119 4.81198 18.5575 4.70669 18.2922 4.70679C18.027 4.70688 17.7726 4.81235 17.5851 4.99999L12.0001 10.586L6.41409 4.99999C6.22549 4.81783 5.97288 4.71704 5.71069 4.71932C5.44849 4.72159 5.19768 4.82676 5.01227 5.01217C4.82686 5.19758 4.72169 5.44839 4.71941 5.71059C4.71713 5.97279 4.81793 6.22539 5.00009 6.41399L10.5861 12L5.00009 17.586Z" fill="white"/>
</svg>
