<svg width="127" height="32" viewBox="0 0 127 32" fill="none" xmlns="http://www.w3.org/2000/svg">
<g clip-path="url(#clip0_113_7509)">
<path d="M5.25924 0C5.49739 0.0405025 5.73454 0.0874778 5.96995 0.141593C5.96995 0.421947 5.96995 0.702301 5.96995 0.99115C6.10481 1.00867 6.23967 1.02619 6.37861 1.04425C6.82281 1.13274 6.82281 1.13274 7.10709 1.41593C7.11405 1.528 7.12102 1.64007 7.12819 1.75553C7.17041 2.30811 7.25637 2.62755 7.53352 3.11504C8.3027 3.74204 9.20711 4.19018 10.0899 4.63693C10.3764 4.81416 10.3764 4.81416 10.6607 5.23894C10.6133 6.08438 10.3972 6.83105 10.1265 7.62942C10.0485 7.86706 9.97063 8.1047 9.89275 8.34237C9.77021 8.71233 9.64708 9.08207 9.52303 9.45153C9.40272 9.8112 9.28476 10.1716 9.16705 10.5321C9.12945 10.6418 9.09185 10.7516 9.05311 10.8647C8.76096 11.7662 8.85013 12.3947 9.19759 13.2765C9.24558 13.4013 9.29358 13.5261 9.34303 13.6547C9.41918 13.8519 9.41918 13.8519 9.49686 14.0531C10.4053 16.4766 11.3759 19.5218 10.5007 22.0885C10.1664 22.6214 9.83335 22.7882 9.23923 22.9381C8.64837 22.9873 8.06369 22.9782 7.47133 22.9646C6.92897 22.9558 6.38661 22.9471 5.82781 22.9381C5.82781 25.0407 5.82781 27.1434 5.82781 29.3097C6.67214 29.3097 7.51646 29.3097 8.38637 29.3097C9.72128 29.9746 9.72128 29.9746 10.0921 30.8673C10.1365 31.3451 10.1365 31.3451 10.0921 31.7168C9.94994 31.8584 9.94994 31.8584 9.5857 31.8673C9.47137 31.8643 9.35703 31.8614 9.23923 31.8584C9.198 31.7407 9.198 31.7407 9.15594 31.6206C9.11893 31.518 9.08192 31.4154 9.04378 31.3097C9.0075 31.2079 8.97122 31.106 8.93385 31.0011C8.8215 30.6999 8.8215 30.6999 8.52852 30.4425C7.99412 30.2511 7.42047 30.2535 6.85834 30.2212C6.70965 30.2121 6.70965 30.2121 6.55795 30.2027C6.3146 30.1878 6.07121 30.1735 5.82781 30.1593C5.82781 30.72 5.82781 31.2807 5.82781 31.8584C5.59327 31.8584 5.35874 31.8584 5.1171 31.8584C4.97495 31.7168 4.97495 31.7168 4.96107 31.3623C4.96272 31.2194 4.96437 31.0764 4.96607 30.9292C4.96735 30.7859 4.96863 30.6426 4.96996 30.495C4.9716 30.3842 4.97325 30.2734 4.97495 30.1593C4.6817 30.1755 4.38855 30.1936 4.09545 30.2124C3.85056 30.2272 3.85056 30.2272 3.60072 30.2423C3.01694 30.3145 2.58163 30.4136 2.16764 30.8407C1.97196 31.1818 1.90182 31.4711 1.84782 31.8584C1.61099 31.8645 1.37394 31.8642 1.1371 31.8584C0.994961 31.7168 0.994961 31.7168 0.950541 31.3451C1.01567 30.6444 1.25454 30.1523 1.77452 29.6875C2.79404 29.0516 3.7159 29.3097 4.97495 29.3097C4.97495 27.2071 4.97495 25.1044 4.97495 22.9381C3.93742 22.9492 3.93742 22.9492 2.89994 22.9636C2.06485 22.9681 1.32054 22.971 0.604069 22.4867C0.0652427 21.7084 0.102026 20.7732 0.115453 19.8673C0.115545 19.7482 0.115637 19.6291 0.115731 19.5064C0.119562 18.9717 0.137443 18.4995 0.284248 17.9823C0.550765 17.8938 0.550765 17.8938 0.852818 17.8407C1.1371 18.1239 1.1371 18.1239 1.16487 18.3873C1.16157 18.4922 1.15827 18.5971 1.15487 18.7052C1.15157 18.8792 1.15157 18.8792 1.14821 19.0567C1.14089 19.2993 1.13349 19.5419 1.126 19.7846C1.1227 19.9599 1.1227 19.9599 1.11934 20.1388C1.11439 20.2974 1.11439 20.2974 1.10934 20.4592C1.13413 20.9284 1.13413 20.9284 1.42139 21.8053C4.04818 21.8053 6.67498 21.8053 9.38137 21.8053C10.4522 19.1387 9.07219 15.8204 8.10209 13.3097C8.04529 13.1895 7.98849 13.0692 7.92996 12.9452C7.61537 11.9818 7.88802 11.0932 8.19593 10.1704C8.23412 10.0507 8.27232 9.93111 8.31168 9.80786C8.43275 9.42891 8.5559 9.05069 8.67954 8.67257C8.84281 8.17235 9.00408 7.67155 9.16427 7.17035C9.22134 6.99888 9.22134 6.99888 9.27956 6.82395C9.3308 6.66366 9.3308 6.66366 9.38307 6.50014C9.429 6.36 9.429 6.36 9.47585 6.21703C9.533 5.89313 9.49405 5.68811 9.38137 5.38053C9.13556 5.19183 9.13556 5.19183 8.8228 5.05531C8.70974 4.99836 8.59669 4.94142 8.48021 4.88274C8.24174 4.76708 8.00262 4.65275 7.76284 4.53982C7.16473 4.23567 6.78137 4.02455 6.53463 3.38274C6.40201 2.92311 6.3138 2.45694 6.25424 1.9823C5.78517 2.02903 5.31609 2.07575 4.83281 2.12389C4.82145 2.23012 4.81009 2.33635 4.79839 2.4458C4.66682 3.08813 4.52742 3.61268 3.99536 4.03789C3.26616 4.50315 2.48911 4.87429 1.70567 5.23894C1.51587 5.33278 1.32626 5.42701 1.1371 5.52212C1.36649 6.43661 1.64172 7.32924 1.9522 8.21903C1.98685 8.319 2.0215 8.41897 2.0572 8.52197C2.2013 8.93731 2.34564 9.35253 2.49322 9.76666C2.60211 10.0731 2.70822 10.3805 2.81394 10.6881C2.86434 10.8264 2.86434 10.8264 2.91575 10.9675C3.20909 11.8341 3.09129 12.5517 2.76341 13.3877C2.72026 13.4982 2.67711 13.6088 2.63265 13.7226C2.58767 13.8346 2.54269 13.9466 2.49634 14.0619C2.45191 14.1767 2.40747 14.2914 2.36169 14.4096C2.02763 15.2545 2.02763 15.2545 1.70567 15.5752C1.40362 15.5221 1.40362 15.5221 1.1371 15.4336C1.18569 14.4657 1.42062 13.7658 1.85337 12.8977C2.14693 11.9574 1.77154 11.0031 1.46081 10.1056C1.38352 9.8751 1.30625 9.64455 1.229 9.41399C1.10749 9.05562 0.985496 8.69742 0.863055 8.33936C0.744183 7.99048 0.627135 7.64102 0.510232 7.29148C0.473368 7.18556 0.436503 7.07963 0.398522 6.97049C0.185057 6.32957 0.0791934 5.78158 0.142105 5.09734C0.660863 4.53212 1.41056 4.20968 2.08768 3.85841C2.19735 3.80018 2.30701 3.74196 2.42 3.68197C3.23211 3.25664 3.23211 3.25664 3.55353 3.25664C3.56819 3.11354 3.58284 2.97044 3.59795 2.82301C3.70284 2.22458 3.84638 1.81307 4.1221 1.27434C4.54852 0.99115 4.54852 0.99115 5.1171 0.99115C5.11416 0.853894 5.11123 0.716637 5.10821 0.575221C5.1171 0.141593 5.1171 0.141593 5.25924 0Z" fill="#1B2834"/>
<path d="M85.4382 7.48674C85.5929 7.4875 85.5929 7.4875 85.7508 7.48828C85.859 7.48826 85.9671 7.48824 86.0786 7.48822C86.4377 7.48832 86.7969 7.48942 87.1561 7.49053C87.4045 7.49079 87.6528 7.49099 87.9012 7.49113C88.5562 7.49168 89.2112 7.49307 89.8662 7.49463C90.5341 7.49608 91.202 7.49673 91.8698 7.49744C93.1812 7.49896 94.4926 7.50138 95.804 7.50435C95.8429 7.65008 95.8818 7.7958 95.9218 7.94593C95.9734 8.13908 96.025 8.33223 96.0766 8.52537C96.1022 8.62118 96.1278 8.717 96.1541 8.81571C96.2594 9.20957 96.3653 9.60299 96.4783 9.99474C96.6298 10.5351 96.6846 10.9276 96.5147 11.469C96.1932 11.5138 96.1932 11.5138 95.804 11.469C95.5258 11.1631 95.5258 11.1631 95.2621 10.7521C94.5716 9.75075 93.9602 8.96705 92.7285 8.6912C92.0753 8.586 91.4184 8.56939 90.758 8.5486C90.2654 8.53108 89.7729 8.51356 89.2655 8.4955C89.3124 10.5047 89.3593 12.5139 89.4076 14.584C91.413 14.654 91.413 14.654 92.2505 13.876C92.4509 13.5492 92.4509 13.5492 92.5792 13.2035C92.6255 13.0903 92.6719 12.9771 92.7196 12.8605C92.7524 12.7751 92.7852 12.6897 92.819 12.6017C93.0536 12.6017 93.2881 12.6017 93.5297 12.6017C93.5606 13.2619 93.5885 13.9221 93.6139 14.5825C93.6229 14.8072 93.6327 15.0319 93.6433 15.2566C93.6584 15.5792 93.6707 15.9018 93.6824 16.2245C93.6877 16.3252 93.6931 16.426 93.6985 16.5298C93.7072 16.8132 93.7072 16.8132 93.6719 17.2743C93.2455 17.5575 93.2455 17.5575 92.819 17.5575C92.7829 17.4704 92.7468 17.3833 92.7096 17.2936C92.6607 17.1792 92.6118 17.0647 92.5614 16.9468C92.5136 16.8335 92.4657 16.7201 92.4165 16.6034C92.1951 16.1764 91.9706 15.9314 91.5397 15.7167C91.1547 15.6612 90.7711 15.6112 90.3848 15.5663C90.2776 15.5534 90.1705 15.5406 90.06 15.5273C89.7952 15.4956 89.5303 15.4645 89.2655 15.4336C89.2822 16.1771 89.2999 16.9206 89.3184 17.6641C89.3246 17.9172 89.3305 18.1704 89.3362 18.4235C89.3443 18.7866 89.3534 19.1496 89.3626 19.5127C89.365 19.6265 89.3674 19.7404 89.3698 19.8577C89.3354 20.3789 89.3354 20.3789 89.5497 20.8141C89.8126 20.8472 90.0764 20.8726 90.3404 20.8937C90.5562 20.9115 90.5562 20.9115 90.7763 20.9297C90.8875 20.9383 90.9987 20.9468 91.1133 20.9557C91.1133 21.236 91.1133 21.5164 91.1133 21.8052C89.0963 21.8052 87.0793 21.8052 85.0012 21.8052C85.0012 21.5249 85.0012 21.2445 85.0012 20.9557C85.0919 20.9471 85.1826 20.9385 85.276 20.9297C85.3935 20.9178 85.5109 20.906 85.6319 20.8937C85.749 20.8822 85.8661 20.8707 85.9867 20.8589C86.2786 20.8439 86.2786 20.8439 86.4226 20.6725C86.4369 20.3027 86.442 19.9367 86.441 19.5669C86.4413 19.4511 86.4415 19.3353 86.4418 19.2159C86.4424 18.8313 86.442 18.4466 86.4415 18.0619C86.4416 17.7958 86.4417 17.5296 86.4419 17.2635C86.4421 16.705 86.4418 16.1465 86.4411 15.588C86.4403 14.8704 86.4408 14.1528 86.4416 13.4353C86.4422 12.8855 86.442 12.3358 86.4416 11.786C86.4415 11.5213 86.4417 11.2567 86.442 10.992C86.4423 10.6228 86.4418 10.2536 86.441 9.88433C86.4413 9.77385 86.4416 9.66336 86.4419 9.54953C86.4858 9.05186 86.4858 9.05186 86.2805 8.6371C85.9939 8.60393 85.7064 8.57857 85.4187 8.55745C85.2617 8.54559 85.1047 8.53372 84.9429 8.5215C84.8214 8.51292 84.6999 8.50434 84.5748 8.4955C84.5687 8.21238 84.569 7.92907 84.5748 7.64595C84.8159 7.40571 85.1165 7.48741 85.4382 7.48674Z" fill="#1B2834"/>
<path d="M19.199 7.48674C19.3538 7.4875 19.3538 7.4875 19.5116 7.48828C19.6198 7.48826 19.728 7.48824 19.8394 7.48822C20.1986 7.48832 20.5577 7.48942 20.9169 7.49053C21.1653 7.49079 21.4137 7.49099 21.662 7.49113C22.3171 7.49168 22.9721 7.49307 23.6271 7.49463C24.2949 7.49608 24.9628 7.49673 25.6307 7.49744C26.9421 7.49896 28.2535 7.50138 29.5649 7.50435C29.8223 8.13607 29.9961 8.75315 30.1512 9.41586C30.177 9.52154 30.2029 9.62722 30.2295 9.7361C30.3573 10.277 30.4512 10.7674 30.4177 11.3274C30.1832 11.3741 29.9486 11.4208 29.707 11.469C29.5056 11.2242 29.3042 10.9793 29.1029 10.7344C28.9347 10.5299 28.9347 10.5299 28.7631 10.3213C28.5473 10.0576 28.3349 9.79118 28.1268 9.5215C27.5954 8.89009 26.9438 8.73944 26.1534 8.6371C25.6148 8.60097 25.076 8.57862 24.5366 8.55745C24.0382 8.53701 23.5398 8.51657 23.0263 8.4955C23.0263 10.5514 23.0263 12.6074 23.0263 14.7256C23.1201 14.6789 23.2139 14.6321 23.3106 14.584C23.8089 14.5557 24.307 14.5389 24.8059 14.5237C25.3797 14.4294 25.6085 14.288 26.0113 13.876C26.2117 13.5492 26.2117 13.5492 26.34 13.2035C26.3864 13.0903 26.4327 12.9771 26.4805 12.8605C26.5133 12.7751 26.5461 12.6897 26.5799 12.6017C26.8144 12.6017 27.0489 12.6017 27.2906 12.6017C27.3375 14.1904 27.3844 15.779 27.4327 17.4159C27.0106 17.4859 27.0106 17.4859 26.5799 17.5575C26.5307 17.4115 26.5307 17.4115 26.4805 17.2627C26.4341 17.1351 26.3878 17.0075 26.34 16.876C26.2955 16.7495 26.2509 16.6231 26.2051 16.4927C25.9574 16.0438 25.7637 15.9399 25.3006 15.7167C24.9093 15.6298 24.5177 15.5873 24.119 15.5486C23.9611 15.5312 23.9611 15.5312 23.8 15.5135C23.5423 15.4853 23.2843 15.4592 23.0263 15.4336C23.0431 16.1543 23.0607 16.8751 23.0792 17.5958C23.0854 17.8411 23.0913 18.0864 23.097 18.3317C23.1052 18.6839 23.1142 19.036 23.1235 19.3882C23.1258 19.4982 23.1282 19.6083 23.1307 19.7216C23.135 20.2863 23.135 20.2863 23.3106 20.8141C23.6735 20.875 23.6735 20.875 24.0924 20.8937C24.8605 20.942 24.8605 20.942 25.0163 21.0973C25.0163 21.3309 25.0163 21.5645 25.0163 21.8052C22.9524 21.8052 20.8885 21.8052 18.762 21.8052C18.762 21.5249 18.762 21.2445 18.762 20.9557C19.536 20.8856 19.536 20.8856 20.3256 20.8141C20.3103 19.2473 20.2943 17.6805 20.2774 16.1138C20.2695 15.3863 20.2619 14.6589 20.2549 13.9314C20.2481 13.23 20.2407 12.5286 20.2328 11.8272C20.2299 11.559 20.2272 11.2908 20.2248 11.0226C20.2214 10.6482 20.2171 10.2739 20.2126 9.89958C20.2118 9.78755 20.211 9.67551 20.2102 9.56009C20.2495 9.05668 20.2495 9.05668 20.0413 8.6371C19.7813 8.60759 19.5205 8.58506 19.2595 8.5663C18.4935 8.51124 18.4935 8.51124 18.3356 8.35391C18.3178 7.99993 18.3178 7.99993 18.3356 7.64595C18.5768 7.40571 18.8773 7.48741 19.199 7.48674Z" fill="#1B2834"/>
<path d="M50.1762 7.36279C50.2231 9.60562 50.27 11.8485 50.3183 14.1593C50.8812 13.8088 50.8812 13.8088 51.4555 13.4513C52.2523 13.1867 53.2332 13.1639 54.0423 13.4015C54.7929 13.7946 55.4518 14.4914 55.7197 15.292C55.7417 15.7093 55.7563 16.1239 55.7647 16.5414C55.7677 16.6634 55.7706 16.7854 55.7737 16.911C55.783 17.3006 55.7913 17.6901 55.7997 18.0796C55.8058 18.3437 55.812 18.6078 55.8183 18.8719C55.8335 19.5193 55.8479 20.1667 55.8619 20.8141C56.2371 20.8608 56.6124 20.9076 56.999 20.9557C56.999 21.2361 56.999 21.5164 56.999 21.8053C55.498 21.8053 53.997 21.8053 52.4505 21.8053C52.4505 21.5249 52.4505 21.2446 52.4505 20.9557C52.8726 20.8856 52.8726 20.8856 53.3033 20.8141C53.3139 20.1037 53.3216 19.3934 53.3267 18.683C53.3289 18.4415 53.3318 18.2001 53.3355 17.9587C53.3407 17.6107 53.3431 17.2628 53.345 16.9148C53.3483 16.7541 53.3483 16.7541 53.3516 16.5902C53.3518 15.9134 53.2546 15.4524 52.8769 14.8672C52.3432 14.5128 52.0884 14.5199 51.4555 14.584C50.929 14.871 50.6518 15.0768 50.3183 15.5752C50.2939 15.9759 50.2853 16.3623 50.2906 16.7627C50.2912 16.9362 50.2912 16.9362 50.2918 17.1132C50.2934 17.4826 50.2969 17.8519 50.3006 18.2212C50.302 18.4717 50.3033 18.7221 50.3044 18.9726C50.3076 19.5864 50.3125 20.2003 50.3183 20.8141C50.5998 20.9076 50.8812 21.001 51.1712 21.0973C51.1712 21.3309 51.1712 21.5646 51.1712 21.8053C49.6232 21.8053 48.0753 21.8053 46.4805 21.8053C46.4805 21.0973 46.4805 21.0973 46.6226 20.9557C46.9543 20.9085 47.2859 20.8613 47.6176 20.8141C47.8854 20.5474 47.7807 20.0868 47.7827 19.7318C47.7834 19.6335 47.7841 19.5352 47.7848 19.4339C47.7869 19.1071 47.7878 18.7803 47.7886 18.4535C47.7894 18.2268 47.7903 18.0002 47.7911 17.7735C47.7926 17.2974 47.7934 16.8212 47.7939 16.3451C47.7947 15.7355 47.7981 15.1259 47.8021 14.5163C47.8048 14.0477 47.8055 13.5791 47.8057 13.1104C47.8062 12.8857 47.8073 12.6611 47.8092 12.4364C47.8116 12.1215 47.8113 11.8067 47.8104 11.4918C47.8112 11.2231 47.8112 11.2231 47.812 10.9491C47.7552 10.4368 47.6482 10.1749 47.3333 9.76987C46.8974 9.51128 46.8974 9.51128 46.4805 9.34509C46.5134 9.01286 46.5134 9.01286 46.6226 8.63713C46.8884 8.43978 46.8884 8.43978 47.2334 8.28923C47.358 8.23402 47.4826 8.17881 47.6109 8.12192C47.7421 8.06707 47.8733 8.01222 48.0085 7.95571C48.202 7.86933 48.202 7.86933 48.3994 7.78121C49.0599 7.49503 49.4345 7.36279 50.1762 7.36279Z" fill="#1B2834"/>
<path d="M112.436 13.4514C113.843 13.4514 115.25 13.4514 116.7 13.4514C116.7 13.685 116.7 13.9186 116.7 14.1593C116.512 14.2061 116.325 14.2528 116.131 14.3009C116.261 14.7613 116.391 15.2214 116.522 15.6815C116.558 15.809 116.594 15.9366 116.631 16.0681C116.91 17.0466 117.223 18.0109 117.553 18.9735C117.796 18.4026 118.035 17.8299 118.272 17.2567C118.341 17.095 118.41 16.9333 118.481 16.7666C118.546 16.6097 118.611 16.4527 118.677 16.291C118.737 16.1471 118.798 16.0033 118.86 15.8551C118.99 15.3762 118.947 15.0622 118.832 14.5841C118.551 14.4907 118.269 14.3972 117.979 14.3009C117.973 14.065 117.973 13.8289 117.979 13.593C118.121 13.4514 118.121 13.4514 118.503 13.4353C118.669 13.436 118.835 13.4368 119.006 13.4375C119.185 13.438 119.364 13.4385 119.549 13.4389C119.739 13.4401 119.93 13.4413 120.12 13.4425C120.311 13.4432 120.502 13.4439 120.693 13.4445C121.163 13.4461 121.632 13.4485 122.101 13.4514C122.101 13.7317 122.101 14.0121 122.101 14.3009C121.867 14.3477 121.632 14.3944 121.391 14.4425C122.094 16.5452 122.094 16.5452 122.812 18.6903C123.023 18.1471 123.234 17.6039 123.452 17.0443C123.518 16.8746 123.585 16.7049 123.654 16.5301C123.732 16.3263 123.732 16.3263 123.811 16.1184C123.865 15.9805 123.919 15.8426 123.974 15.7005C124.1 15.2627 124.112 14.8956 124.091 14.4425C123.857 14.3958 123.622 14.3491 123.381 14.3009C123.381 14.0206 123.381 13.7402 123.381 13.4514C124.553 13.4514 125.726 13.4514 126.934 13.4514C126.934 13.685 126.934 13.9186 126.934 14.1593C126.764 14.1924 126.593 14.2254 126.418 14.2595C125.809 14.4894 125.632 14.7938 125.363 15.3734C125.225 15.7075 125.092 16.0433 124.962 16.3806C124.89 16.5582 124.818 16.7356 124.745 16.9128C124.597 17.2765 124.451 17.6409 124.307 18.0061C124.038 18.6862 123.755 19.3606 123.472 20.0351C123.348 20.3321 123.224 20.6294 123.101 20.9271C123.046 21.0598 122.991 21.1925 122.935 21.3291C122.887 21.4455 122.839 21.5619 122.789 21.6818C122.67 21.947 122.67 21.947 122.528 22.0885C122.291 22.0943 122.054 22.0946 121.817 22.0885C121.315 20.9434 120.866 19.779 120.422 18.6107C120.364 18.459 120.306 18.3073 120.246 18.151C120.192 18.0076 120.138 17.8641 120.082 17.7163C120.033 17.587 119.984 17.4577 119.933 17.3244C119.827 16.9912 119.827 16.9912 119.827 16.5664C119.733 16.5664 119.639 16.5664 119.543 16.5664C119.49 16.7345 119.438 16.9026 119.384 17.0758C119.063 18.0356 118.649 18.9577 118.246 19.885C118.167 20.0678 118.088 20.2506 118.009 20.4334C117.441 21.7442 117.441 21.7442 117.268 22.0885C117.034 22.0885 116.799 22.0885 116.558 22.0885C116.122 21.2521 115.757 20.4064 115.415 19.5283C115.363 19.3957 115.311 19.2632 115.257 19.1267C115.092 18.7071 114.927 18.2872 114.763 17.8673C114.546 17.3116 114.328 16.7561 114.109 16.2008C114.059 16.0734 114.01 15.946 113.959 15.8147C113.889 15.6374 113.889 15.6374 113.818 15.4565C113.777 15.3527 113.737 15.2489 113.695 15.1419C113.566 14.8312 113.566 14.8312 113.288 14.4425C112.853 14.3387 112.853 14.3387 112.436 14.3009C112.436 14.0206 112.436 13.7402 112.436 13.4514Z" fill="#1B2834"/>
<path d="M76.756 13.3097C76.8499 13.6367 76.9437 13.9638 77.0403 14.3008C77.1294 14.2411 77.2184 14.1814 77.3102 14.1199C77.4263 14.0424 77.5425 13.9648 77.6622 13.8849C77.7776 13.8077 77.8931 13.7305 78.012 13.6509C78.8325 13.1184 79.7916 13.2086 80.736 13.3097C81.4049 13.5783 81.8524 13.9564 82.2996 14.5132C82.6166 15.3027 82.6033 16.1093 82.5978 16.9457C82.5976 17.0608 82.5974 17.1759 82.5972 17.2945C82.5964 17.6594 82.5946 18.0243 82.5928 18.3893C82.5921 18.6378 82.5914 18.8864 82.5908 19.1349C82.5893 19.7418 82.5868 20.3487 82.5839 20.9557C82.9591 20.9557 83.3344 20.9557 83.721 20.9557C83.721 21.236 83.721 21.5164 83.721 21.8052C82.22 21.8052 80.719 21.8052 79.1725 21.8052C79.1725 21.5716 79.1725 21.338 79.1725 21.0973C79.4539 21.0038 79.7354 20.9104 80.0253 20.8141C80.209 19.8488 80.1936 18.8997 80.1941 17.9203C80.1967 17.6447 80.1967 17.6447 80.1994 17.3636C80.1997 17.1853 80.1999 17.0071 80.2002 16.8235C80.2008 16.6621 80.2014 16.5006 80.202 16.3343C80.1635 15.8031 80.046 15.3729 79.8832 14.8672C79.1268 14.6536 78.3714 14.6419 77.6089 14.8318C77.3035 14.9803 77.3035 14.9803 77.2368 15.2689C77.1482 15.7686 77.1653 16.2708 77.1686 16.7765C77.1689 16.9497 77.1689 16.9497 77.1692 17.1264C77.17 17.4943 77.1718 17.8621 77.1736 18.23C77.1743 18.4798 77.1749 18.7296 77.1755 18.9795C77.1771 19.591 77.1795 20.2025 77.1825 20.8141C77.417 20.8608 77.6515 20.9075 77.8932 20.9557C77.8932 21.236 77.8932 21.5164 77.8932 21.8052C76.486 21.8052 75.0788 21.8052 73.6289 21.8052C73.6289 21.5249 73.6289 21.2445 73.6289 20.9557C74.1214 20.8856 74.1214 20.8856 74.6239 20.8141C74.6415 20.1414 74.6544 19.4689 74.6629 18.7961C74.6665 18.5675 74.6714 18.3388 74.6775 18.1102C74.6862 17.7808 74.6902 17.4516 74.6933 17.1222C74.6988 16.9697 74.6988 16.9697 74.7044 16.8141C74.7047 16.2527 74.6443 16.0247 74.282 15.5846C73.9421 15.2941 73.9421 15.2941 73.6289 15.1504C73.6289 14.9167 73.6289 14.6831 73.6289 14.4424C74.0161 14.2519 74.404 14.0634 74.7927 13.876C74.902 13.822 75.0113 13.768 75.1239 13.7123C76.1315 13.2299 76.1315 13.2299 76.756 13.3097Z" fill="#1B2834"/>
<path d="M109.833 13.6195C110.041 13.7455 110.246 13.8778 110.446 14.0177C110.528 14.0721 110.611 14.1265 110.696 14.1825C111.526 14.7934 112.05 15.7015 112.254 16.6991C112.453 18.1566 112.111 19.321 111.26 20.5205C110.616 21.2894 109.739 21.9054 108.74 22.0885C107.145 22.2305 105.911 22.1828 104.616 21.1527C103.71 20.326 103.268 19.37 103.163 18.1576C103.129 16.8331 103.44 15.7297 104.256 14.6687C105.635 13.2496 108.02 12.7456 109.833 13.6195ZM106.608 14.5841C105.746 15.4431 105.586 16.4433 105.56 17.6195C105.585 18.7047 105.707 19.6985 106.35 20.6018C106.841 21.036 107.231 21.2171 107.887 21.2389C108.482 21.0763 108.784 20.8084 109.131 20.3186C109.835 19.0773 109.834 17.6579 109.593 16.2832C109.352 15.4765 109.003 14.8121 108.314 14.3009C107.589 14.0946 107.197 14.1083 106.608 14.5841Z" fill="#1B2834"/>
<path d="M69.8894 13.6195C70.098 13.7455 70.3029 13.8778 70.5024 14.0177C70.5848 14.0721 70.6673 14.1265 70.7523 14.1825C71.5824 14.7934 72.1068 15.7015 72.3103 16.6991C72.5098 18.1566 72.1681 19.321 71.3169 20.5205C70.673 21.2894 69.7955 21.9054 68.7967 22.0885C67.2017 22.2305 65.9675 22.1828 64.6723 21.1527C63.7664 20.326 63.3243 19.37 63.2193 18.1576C63.1855 16.8331 63.4967 15.7297 64.3125 14.6687C65.6918 13.2496 68.077 12.7456 69.8894 13.6195ZM66.6645 14.5841C65.8022 15.4431 65.6425 16.4433 65.6162 17.6195C65.6414 18.7047 65.7633 19.6985 66.4069 20.6018C66.8974 21.036 67.2873 21.2171 67.9438 21.2389C68.5385 21.0763 68.8405 20.8084 69.1876 20.3186C69.8912 19.0773 69.8906 17.6579 69.6495 16.2832C69.4083 15.4765 69.0599 14.8121 68.3703 14.3009C67.6455 14.0946 67.2536 14.1083 66.6645 14.5841Z" fill="#1B2834"/>
<path d="M34.7715 13.2479C34.8751 13.2447 34.9787 13.2415 35.0855 13.2383C35.8177 13.2414 36.2351 13.3967 36.8148 13.8762C37.3412 14.6627 37.2637 15.6941 37.2812 16.6185C37.2866 16.8393 37.292 17.0602 37.2973 17.2811C37.305 17.6251 37.3124 17.969 37.3197 18.313C37.3271 18.6479 37.3352 18.9827 37.3434 19.3176C37.3453 19.421 37.3473 19.5244 37.3493 19.6309C37.3543 20.1697 37.3543 20.1697 37.5255 20.6727C37.6311 20.623 37.7366 20.5734 37.8453 20.5222C38.2542 20.3834 38.4167 20.3516 38.8048 20.5311C38.8517 20.6713 38.8986 20.8114 38.947 20.9559C38.7843 21.2092 38.7843 21.2092 38.5472 21.4691C38.4315 21.5989 38.4315 21.5989 38.3134 21.7313C37.8998 22.1381 37.5483 22.1197 36.9836 22.1328C36.4135 22.1288 36.1601 22.121 35.6599 21.832C35.3934 21.5222 35.3934 21.5222 35.1091 21.0974C35.0094 21.1821 34.9097 21.2668 34.8071 21.3541C33.7718 22.1387 32.8324 22.256 31.5555 22.0886C31.0521 21.831 30.8806 21.4876 30.7027 20.9559C30.6226 20.1502 30.6561 19.516 31.1291 18.832C31.7906 18.1625 32.5119 17.749 33.3679 17.3718C33.475 17.3228 33.5822 17.2738 33.6927 17.2233C34.1148 17.0317 34.5264 16.8544 34.967 16.7081C34.9507 16.4602 34.9325 16.2124 34.9137 15.9647C34.9038 15.8267 34.8939 15.6887 34.8837 15.5466C34.8264 15.161 34.7498 14.9111 34.5405 14.5842C34.1873 14.4082 34.0055 14.4491 33.6166 14.4957C33.4473 14.5148 33.4473 14.5148 33.2746 14.5344C32.9697 14.5705 32.9697 14.5705 32.6927 14.7258C32.6418 15.0779 32.6296 15.4264 32.6133 15.7816C32.5396 16.2046 32.4237 16.402 32.1241 16.7081C31.5731 16.8355 31.2421 16.8872 30.7027 16.7081C30.4817 16.2678 30.5198 15.9204 30.5605 15.4337C31.035 14.4268 31.9601 13.9739 32.9059 13.4691C33.5128 13.2648 34.1366 13.2601 34.7715 13.2479ZM34.1319 18.0178C34.0062 18.1032 33.8805 18.1886 33.751 18.2767C33.318 18.6156 33.0231 18.8799 32.9153 19.4293C32.9144 19.9733 32.9156 20.2944 33.2168 20.7612C33.5314 20.9853 33.5314 20.9853 33.892 20.9559C34.3642 20.7723 34.6187 20.6224 34.967 20.2479C35.0557 19.7852 35.034 19.3362 35.0114 18.8674C35.0082 18.7416 35.005 18.6158 35.0017 18.4863C34.9933 18.1765 34.9816 17.8672 34.967 17.5576C34.666 17.5576 34.3665 17.8566 34.1319 18.0178Z" fill="#1B2834"/>
<path d="M101.348 7.36281C101.347 7.60619 101.347 7.60619 101.347 7.85449C101.344 9.38171 101.342 10.9089 101.34 12.4362C101.34 13.2214 101.339 14.0066 101.337 14.7918C101.336 15.5492 101.335 16.3066 101.334 17.064C101.334 17.3533 101.334 17.6427 101.333 17.932C101.332 18.3364 101.332 18.7409 101.332 19.1453C101.331 19.2656 101.331 19.3859 101.33 19.5098C101.331 19.9808 101.339 20.3641 101.49 20.8141C101.912 20.8609 102.334 20.9076 102.769 20.9557C102.769 21.2361 102.769 21.5164 102.769 21.8053C101.034 21.8053 99.2981 21.8053 97.51 21.8053C97.51 21.5249 97.51 21.2446 97.51 20.9557C98.1432 20.8856 98.1432 20.8856 98.7892 20.8141C98.7991 19.4602 98.8067 18.1063 98.8113 16.7524C98.8136 16.1237 98.8166 15.495 98.8214 14.8663C98.8261 14.2595 98.8286 13.6526 98.8297 13.0458C98.8305 12.8144 98.832 12.583 98.8343 12.3516C98.8374 12.0272 98.8379 11.7029 98.8377 11.3785C98.8386 11.1939 98.8396 11.0093 98.8405 10.8192C98.7858 10.3036 98.6737 10.0388 98.3628 9.6283C98.1118 9.45857 98.1118 9.45857 97.8387 9.37166C97.6833 9.31617 97.5279 9.26069 97.3678 9.20352C97.365 8.87775 97.365 8.87775 97.51 8.49556C97.881 8.27935 98.2813 8.16678 98.6915 8.04423C98.9102 7.97465 99.1288 7.90478 99.3473 7.8346C99.4446 7.805 99.542 7.7754 99.6423 7.7449C99.9314 7.65406 99.9314 7.65406 100.194 7.49262C100.588 7.32295 100.923 7.35435 101.348 7.36281Z" fill="#1B2834"/>
<path d="M42.7943 13.2477C42.9377 13.2456 42.9377 13.2456 43.084 13.2434C43.9005 13.2574 44.6121 13.4302 45.2018 14.0176C45.2968 14.412 45.2968 14.412 45.3706 14.876C45.3961 15.0295 45.4216 15.1831 45.4478 15.3412C45.4605 15.4651 45.4731 15.5891 45.4861 15.7168C45.344 15.8583 45.344 15.8583 45.0175 15.9109C44.6333 15.8583 44.6333 15.8583 44.329 15.5536C44.23 15.4235 44.1311 15.2933 44.0292 15.1592C43.4706 14.5052 43.4706 14.5052 42.6788 14.2389C42.1863 14.2389 42.0634 14.3083 41.6305 14.5929C41.3362 14.9889 41.3362 14.9889 41.3018 15.4424C41.5869 16.0227 41.9307 16.0876 42.5256 16.2942C42.7245 16.3588 42.7245 16.3588 42.9276 16.4247C43.9451 16.7786 44.9137 17.1561 45.5094 18.1039C45.7781 18.7893 45.7402 19.6011 45.5255 20.2981C45.1164 21.1776 44.5332 21.624 43.637 21.9979C42.6521 22.313 41.2043 22.2609 40.2357 21.9114C39.8729 21.6875 39.8065 21.5404 39.671 21.131C39.5453 20.4566 39.506 19.8 39.5161 19.115C39.8679 19.0449 39.8679 19.0449 40.2268 18.9734C40.3376 19.15 40.3376 19.15 40.4506 19.3301C40.5497 19.484 40.6489 19.6379 40.751 19.7964C40.8483 19.9492 40.9456 20.1019 41.0458 20.2593C41.3671 20.6766 41.6002 20.8772 42.0747 21.0973C42.6633 21.1706 42.9659 21.1545 43.4872 20.8672C43.8141 20.5495 43.8141 20.5495 43.8604 20.1061C43.7593 19.5694 43.6385 19.4555 43.2118 19.115C42.8036 18.9342 42.3821 18.7973 41.9592 18.6548C40.9776 18.2976 40.1467 17.9754 39.6583 16.9911C39.3462 16.1443 39.5756 15.3791 39.9426 14.584C40.6122 13.4722 41.5731 13.2596 42.7943 13.2477Z" fill="#1B2834"/>
<path d="M61.2641 13.3098C61.3344 17.0245 61.3344 17.0245 61.4062 20.8142C61.7815 20.861 62.1567 20.9077 62.5434 20.9558C62.5434 21.2362 62.5434 21.5165 62.5434 21.8054C60.9016 21.8054 59.2599 21.8054 57.5684 21.8054C57.5684 21.525 57.5684 21.2447 57.5684 20.9558C57.9905 20.9558 58.4127 20.9558 58.8476 20.9558C58.8617 20.2201 58.872 19.4845 58.8789 18.7486C58.8817 18.4984 58.8856 18.2481 58.8905 17.9979C58.8974 17.638 58.9007 17.2782 58.9032 16.9182C58.9061 16.8065 58.909 16.6949 58.9121 16.5798C58.9123 16.0699 58.8966 15.7804 58.5799 15.3697C58.2983 15.1645 58.0309 15.0041 57.7105 14.8673C57.7105 14.6804 57.7105 14.4935 57.7105 14.301C58.142 14.1335 58.5746 13.9692 59.0076 13.8054C59.1292 13.7581 59.2509 13.7108 59.3762 13.6621C59.4953 13.6174 59.6144 13.5727 59.7371 13.5266C59.9002 13.4643 59.9002 13.4643 60.0665 13.4008C60.4112 13.3098 60.4112 13.3098 61.2641 13.3098Z" fill="#1B2834"/>
<path d="M60.5532 8.92048C61.0005 9.30891 61.1075 9.53993 61.2017 10.124C61.1218 10.6196 61.1218 10.6196 60.8464 11.0355C60.2609 11.4283 59.8181 11.4574 59.1318 11.3276C58.6965 11.1152 58.6965 11.1152 58.4211 10.7612C58.3474 10.2991 58.3111 10.063 58.4211 9.62844C59.0564 8.82446 59.5627 8.67814 60.5532 8.92048Z" fill="#1B2834"/>
<path d="M2.27496 7.50439C2.50949 7.50439 2.74403 7.50439 2.98567 7.50439C3.30413 8.2671 3.60506 9.0358 3.88294 9.81413C3.93223 9.95084 3.98152 10.0875 4.0323 10.2284C4.13026 10.6516 4.09807 10.9132 3.98067 11.3274C3.65862 11.3385 3.65862 11.3385 3.26995 11.1858C3.0257 10.7737 2.88636 10.3294 2.73692 9.87608C2.69386 9.75433 2.6508 9.63259 2.60644 9.50716C2.40881 8.93934 2.22162 8.38389 2.13281 7.78758C2.17972 7.69413 2.22663 7.60068 2.27496 7.50439Z" fill="#1B2834"/>
<path d="M1.70562 5.80542C1.94016 5.80542 2.17469 5.80542 2.41633 5.80542C2.64427 6.30209 2.73194 6.6753 2.70062 7.22135C2.16758 7.38064 2.16758 7.38064 1.84776 7.22135C1.75282 6.96969 1.75282 6.96969 1.67897 6.66383C1.6535 6.56326 1.62803 6.46269 1.60179 6.35907C1.56348 6.08861 1.56348 6.08861 1.70562 5.80542Z" fill="#1B2834"/>
</g>
<defs>
<clipPath id="clip0_113_7509">
<rect width="126.933" height="32" fill="white"/>
</clipPath>
</defs>
</svg>
