<svg width="45" height="18" viewBox="0 0 45 18" fill="none" xmlns="http://www.w3.org/2000/svg">
<path fill-rule="evenodd" clip-rule="evenodd" d="M20.7367 14.0798V8.7975H23.5409C24.69 8.7975 25.6598 8.42316 26.4505 7.68488L26.6403 7.49771C28.0845 5.96917 27.9896 3.58796 26.4505 2.1738C25.6809 1.42512 24.6267 1.01959 23.5409 1.04039H19.0394V14.0798H20.7367ZM20.7374 7.19618V2.64173H23.5842C24.1958 2.64173 24.7757 2.87049 25.208 3.28643C26.1253 4.15988 26.1464 5.61564 25.2607 6.52029C24.8284 6.96742 24.2168 7.21697 23.5842 7.19618H20.7374ZM34.558 5.8548C33.8306 5.19971 32.8396 4.86696 31.5851 4.86696C29.9721 4.86696 28.7598 5.44927 27.9586 6.60348L29.4556 7.52892C30.0038 6.73865 30.7523 6.34352 31.701 6.34352C32.3019 6.34352 32.8818 6.56188 33.3351 6.95702C33.7778 7.33135 34.0309 7.87206 34.0309 8.44397V8.8287C33.3772 8.47516 32.555 8.28799 31.5429 8.28799C30.3622 8.28799 29.4134 8.55835 28.7071 9.10946C28.0008 9.66057 27.6423 10.3884 27.6423 11.3139C27.6212 12.1562 27.9902 12.9568 28.6438 13.4975C29.308 14.0798 30.1514 14.371 31.1423 14.371C32.3125 14.371 33.2402 13.8615 33.9465 12.8424H34.0203V14.0798H35.6438V8.57915C35.6438 7.42494 35.2854 6.50989 34.558 5.8548ZM29.95 12.4368C29.6021 12.1873 29.3912 11.7818 29.3912 11.345C29.3912 10.8563 29.6231 10.4508 30.0765 10.1284C30.5405 9.80608 31.1204 9.63971 31.8057 9.63971C32.7547 9.62931 33.4927 9.83728 34.0199 10.2532C34.0199 10.9603 33.7352 11.5738 33.1764 12.0937C32.6703 12.5928 31.985 12.8736 31.268 12.8736C30.7935 12.884 30.3296 12.728 29.95 12.4368ZM39.2909 18L44.9626 5.15815H43.1177L40.4927 11.5635H40.4611L37.7729 5.15815H35.928L39.6494 13.508L37.541 18H39.2909Z" fill="#3C4043"/>
<path d="M14.8785 7.65358C14.8785 7.14407 14.8364 6.63455 14.752 6.13544H7.59391V9.01576H11.6948C11.5261 9.9412 10.9779 10.7731 10.1767 11.293V13.1647H12.6225C14.0562 11.8649 14.8785 9.9412 14.8785 7.65358Z" fill="#4285F4"/>
<path d="M7.59317 14.9738C9.63834 14.9738 11.3673 14.3083 12.6218 13.1645L10.176 11.2928C9.49075 11.7504 8.61576 12.0103 7.59317 12.0103C5.61125 12.0103 3.93505 10.6897 3.33415 8.92203H0.814582V10.8561C2.10072 13.3829 4.72571 14.9738 7.59317 14.9738Z" fill="#34A853"/>
<path d="M3.33448 8.9221C3.01816 7.99665 3.01816 6.98802 3.33448 6.05218V4.12849H0.814509C-0.271503 6.23934 -0.271503 8.73493 0.814509 10.8458L3.33448 8.9221Z" fill="#FBBC04"/>
<path d="M7.59317 2.96396C8.67901 2.94316 9.72268 3.3487 10.5028 4.08697L12.6745 1.94493C11.2935 0.67634 9.48021 -0.020344 7.59317 0.000452543C4.72571 0.000452543 2.10072 1.60179 0.814582 4.12857L3.33415 6.06265C3.93505 4.28454 5.61125 2.96396 7.59317 2.96396Z" fill="#EA4335"/>
</svg>
